HIERARCHY
ROOT hip
{
  OFFSET 0 0 0
  CHANNELS 6 Xposition Yposition Zposition Zrotation Yrotation Xrotation
  JOINT abdomen
  {
    OFFSET 0 20.6881 -0.73152
    CHANNELS 3 Zrotation Xrotation Yrotation
    JOINT chest
    {
      OFFSET 0 11.7043 -0.48768
      CHANNELS 3 Zrotation Xrotation Yrotation
      JOINT neck
      {
        OFFSET 0 22.1894 -2.19456
        CHANNELS 3 Zrotation Xrotation Yrotation
        JOINT head
        {
          OFFSET -0.24384 7.07133 1.2192
          CHANNELS 3 Zrotation Xrotation Yrotation
          JOINT leftEye
          {
            OFFSET 4.14528 8.04674 8.04672
            CHANNELS 3 Zrotation Xrotation Yrotation
            End Site
            {
              OFFSET 1 0 0
            }
          }
          JOINT rightEye
          {
            OFFSET -3.6576 8.04674 8.04672
            CHANNELS 3 Zrotation Xrotation Yrotation
            End Site
            {
              OFFSET 1 0 0
            }
          }
        }
      }
      JOINT rCollar
      {
        OFFSET -2.68224 19.2634 -4.8768
        CHANNELS 3 Zrotation Xrotation Yrotation
        JOINT rShldr
        {
          OFFSET -8.77824 -1.95073 1.46304
          CHANNELS 3 Zrotation Xrotation Yrotation
          JOINT rForeArm
          {
            OFFSET -28.1742 -1.7115 0.48768
            CHANNELS 3 Zrotation Xrotation Yrotation
            JOINT rHand
            {
              OFFSET -22.5879 0.773209 7.07136
              CHANNELS 3 Zrotation Xrotation Yrotation
              JOINT rThumb1
              {
                OFFSET -1.2192 -0.487915 3.41376
                CHANNELS 3 Zrotation Xrotation Yrotation
                JOINT rThumb2
                {
                  OFFSET -3.37035 -0.52449 3.41376
                  CHANNELS 3 Zrotation Xrotation Yrotation
                  End Site
                  {
                    OFFSET -1.78271 -1.18214 1.43049
                  }
                }
              }
              JOINT rIndex1
              {
                OFFSET -7.75947 0.938293 5.60832
                CHANNELS 3 Zrotation Xrotation Yrotation
                JOINT rIndex2
                {
                  OFFSET -2.54057 -0.884171 1.56538
                  CHANNELS 3 Zrotation Xrotation Yrotation
                  End Site
                  {
                    OFFSET -1.62519 -0.234802 1.16502
                  }
                }
              }
              JOINT rMid1
              {
                OFFSET -8.24714 1.18213 3.41376
                CHANNELS 3 Zrotation Xrotation Yrotation
                JOINT rMid2
                {
                  OFFSET -3.10165 -0.590103 1.0647
                  CHANNELS 3 Zrotation Xrotation Yrotation
                  End Site
                  {
                    OFFSET -2.48547 -0.328903 0.83742
                  }
                }
              }
              JOINT rRing1
              {
                OFFSET -8.82822 0.546677 1.51678
                CHANNELS 3 Zrotation Xrotation Yrotation
                JOINT rRing2
                {
                  OFFSET -2.60934 -0.819778 -0.0198488
                  CHANNELS 3 Zrotation Xrotation Yrotation
                  End Site
                  {
                    OFFSET -2.33842 -0.294052 0.168128
                  }
                }
              }
              JOINT rPinky1
              {
                OFFSET -8.27202 -0.0477905 -0.4584
                CHANNELS 3 Zrotation Xrotation Yrotation
                JOINT rPinky2
                {
                  OFFSET -1.82734 -0.647385 -0.700984
                  CHANNELS 3 Zrotation Xrotation Yrotation
                  End Site
                  {
                    OFFSET -1.69225 -0.51767 -0.607171
                  }
                }
              }
            }
          }
        }
      }
      JOINT lCollar
      {
        OFFSET 2.68224 19.2634 -4.8768
        CHANNELS 3 Zrotation Xrotation Yrotation
        JOINT lShldr
        {
          OFFSET 8.77824 -1.95073 1.46304
          CHANNELS 3 Zrotation Xrotation Yrotation
          JOINT lForeArm
          {
            OFFSET 28.1742 -1.7115 0.48768
            CHANNELS 3 Zrotation Xrotation Yrotation
            JOINT lHand
            {
              OFFSET 22.5879 0.773209 7.07136
              CHANNELS 3 Zrotation Xrotation Yrotation
              JOINT lThumb1
              {
                OFFSET 1.2192 -0.487915 3.41376
                CHANNELS 3 Zrotation Xrotation Yrotation
                JOINT lThumb2
                {
                  OFFSET 3.37035 -0.52449 3.41376
                  CHANNELS 3 Zrotation Xrotation Yrotation
                  End Site
                  {
                    OFFSET 1.78271 -1.18214 1.43049
                  }
                }
              }
              JOINT lIndex1
              {
                OFFSET 7.75947 0.938293 5.60832
                CHANNELS 3 Zrotation Xrotation Yrotation
                JOINT lIndex2
                {
                  OFFSET 2.54057 -0.884171 1.56538
                  CHANNELS 3 Zrotation Xrotation Yrotation
                  End Site
                  {
                    OFFSET 1.62519 -0.234802 1.16502
                  }
                }
              }
              JOINT lMid1
              {
                OFFSET 8.24714 1.18213 3.41376
                CHANNELS 3 Zrotation Xrotation Yrotation
                JOINT lMid2
                {
                  OFFSET 3.10165 -0.590103 1.0647
                  CHANNELS 3 Zrotation Xrotation Yrotation
                  End Site
                  {
                    OFFSET 2.48547 -0.328903 0.83742
                  }
                }
              }
              JOINT lRing1
              {
                OFFSET 8.82822 0.546677 1.51678
                CHANNELS 3 Zrotation Xrotation Yrotation
                JOINT lRing2
                {
                  OFFSET 2.60934 -0.819778 -0.0198488
                  CHANNELS 3 Zrotation Xrotation Yrotation
                  End Site
                  {
                    OFFSET 2.33842 -0.294052 0.168128
                  }
                }
              }
              JOINT lPinky1
              {
                OFFSET 8.27202 -0.0477905 -0.4584
                CHANNELS 3 Zrotation Xrotation Yrotation
                JOINT lPinky2
                {
                  OFFSET 1.82734 -0.647385 -0.700984
                  CHANNELS 3 Zrotation Xrotation Yrotation
                  End Site
                  {
                    OFFSET 1.69225 -0.51767 -0.607171
                  }
                }
              }
            }
          }
        }
      }
    }
  }
  JOINT rButtock
  {
    OFFSET -8.77824 4.35084 1.2192
    CHANNELS 3 Zrotation Xrotation Yrotation
    JOINT rThigh
    {
      OFFSET 0 -1.70687 -2.19456
      CHANNELS 3 Zrotation Xrotation Yrotation
      JOINT rShin
      {
        OFFSET 0 -36.8199 0.73152
        CHANNELS 3 Zrotation Xrotation Yrotation
        JOINT rFoot
        {
          OFFSET 0.73152 -45.1104 -5.12064
          CHANNELS 3 Zrotation Xrotation Yrotation
          End Site
          {
            OFFSET -1.1221 -3.69964 12.103
          }
        }
      }
    }
  }
  JOINT lButtock
  {
    OFFSET 8.77824 4.35084 1.2192
    CHANNELS 3 Zrotation Xrotation Yrotation
    JOINT lThigh
    {
      OFFSET 0 -1.70687 -2.19456
      CHANNELS 3 Zrotation Xrotation Yrotation
      JOINT lShin
      {
        OFFSET 0 -36.8199 0.73152
        CHANNELS 3 Zrotation Xrotation Yrotation
        JOINT lFoot
        {
          OFFSET -0.73152 -45.1104 -5.12064
          CHANNELS 3 Zrotation Xrotation Yrotation
          End Site
          {
            OFFSET 1.1221 -3.69964 12.103
          }
        }
      }
    }
  }
}
MOTION
Frames:	4
Frame Time:	0.00833333
-28.2889 83.5488 19.0528 0.0 0.0 0.0 -0.769346 -0.00386031 -0.0215834 -0.212073 -0.00504116 -0.0367439 7.03895e-16 1.59028e-15 -1.98785e-16 1.94592e-15 1.59028e-14 -6.49156e-16 -0.0 0.0 0.0 -0.0 0.0 0.0 2.96853e-16 -1.16475e-18 -9.93923e-17 8.3212e-15 8.07563e-17 -1.19271e-15 1.08984e-13 -2.90226e-14 -5.725e-14 1.21303e-12 3.43649e-14 -4.6118e-13 2.86193e-12 7.98091e-15 -1.1291e-12 4.94099e-12 9.54166e-15 -1.9632e-12 2.86687e-12 9.54166e-15 -1.13864e-12 7.73091 5.47488 0.417314 2.8619e-12 7.7526e-15 -1.1291e-12 2.90554 0.965183 0.102902 2.87321e-12 8.24956e-15 -1.13228e-12 10.2786 0.731801 0.0259123 2.86469e-12 7.95139e-15 -1.1291e-12 2.22167 -0.733487 -0.20892 2.00132e-16 -2.32951e-18 -1.98785e-16 4.002e-15 -2.11209e-16 -3.57812e-15 1.05555e-13 2.96189e-14 -3.81667e-14 1.20867e-12 -3.2228e-14 -4.73903e-13 2.85352e-12 -6.86734e-15 -1.13228e-12 4.93225e-12 -1.59028e-14 -1.95207e-12 2.84819e-12 -3.18055e-15 -1.11637e-12 -7.73091 5.47488 -0.417314 2.85281e-12 -6.75868e-15 -1.13546e-12 -2.90554 0.965183 -0.102902 2.84584e-12 -6.16232e-15 -1.1283e-12 -10.2786 0.731801 -0.0259123 2.86131e-12 -3.97569e-15 -1.13228e-12 -2.22167 -0.733487 0.20892 -2.03217e-16 0.0 -3.88251e-19 -0.0539084 -2.09674 -0.0177082 -0.00904019 -1.75491 -0.0760431 -0.528937 3.85119 0.139777 2.03217e-16 0.0 3.88251e-19 -1.11487 -4.98914 0.0938581 0.00115142 3.48418 -0.00507127 0.537006 1.50463 -0.0922796
-35.2543 82.2107 8.96734 178.291 -64.4531 178.411 -0.80673 -1.08327 0.785563 -0.705198 2.00698 0.220048 1.22898 4.70063 1.788 -1.23433 -10.6012 3.20115 -0.0 0.0 0.0 -0.0 0.0 0.0 8.33995e-15 -4.66094e-14 6.06316e-14 22.3264 10.0775 0.765942 -13.3224 -10.3752 13.9978 0.0250665 3.51315 0.490393 1.90306e-10 3.24279e-10 -4.12273e-10 3.25129e-10 5.59077e-10 -7.13878e-10 1.90312e-10 3.24281e-10 -4.12281e-10 7.73091 5.47488 0.417314 1.90307e-10 3.24279e-10 -4.12272e-10 2.90554 0.965183 0.102902 1.90315e-10 3.2428e-10 -4.12276e-10 10.2786 0.731801 0.0259123 1.90306e-10 3.24281e-10 -4.12273e-10 2.22167 -0.733487 -0.20892 8.25989e-15 -4.66091e-14 6.04938e-14 -21.2606 8.58589 0.19164 12.8089 -9.81539 -13.7939 -0.0307032 3.88845 -0.541949 -4.40606e-10 -2.55095e-10 -6.73376e-12 -7.61911e-10 -4.42865e-10 -6.25146e-12 -4.40617e-10 -2.55093e-10 -6.71669e-12 -7.73091 5.47488 -0.417314 -4.40608e-10 -2.55097e-10 -6.73599e-12 -2.90554 0.965183 -0.102902 -4.40614e-10 -2.55097e-10 -6.73154e-12 -10.2786 0.731801 -0.0259123 -4.406e-10 -2.55095e-10 -6.73448e-12 -2.22167 -0.733487 0.20892 -2.03217e-16 0.0 -3.88251e-19 -3.07124 -4.7385 0.463858 0.0492863 8.76839 0.134172 -1.64354 -4.61281 -6.24274 2.03217e-16 0.0 3.88251e-19 2.28338 -7.74613 1.19104 -0.0157554 14.4566 -0.185635 1.59902 -6.30746 5.79742
-35.2542 82.2054 8.96087 178.421 -64.5277 178.269 -0.809287 -2.2206 1.64007 -1.23926 4.12046 0.491946 2.2009 9.65661 3.71831 -1.16652 -21.6896 6.96797 -0.0 0.0 0.0 -0.0 0.0 0.0 1.72841e-14 -9.91269e-14 1.28421e-13 45.6132 20.7263 1.64782 -21.8569 -19.2422 30.1591 -0.0142959 7.2253 1.01485 3.97097e-10 6.85171e-10 -8.70747e-10 6.78304e-10 1.18127e-09 -1.50774e-09 3.97106e-10 6.85173e-10 -8.70753e-10 7.73091 5.47488 0.417314 3.97099e-10 6.8517e-10 -8.70745e-10 2.90554 0.965183 0.102902 3.97104e-10 6.85172e-10 -8.70751e-10 10.2786 0.731801 0.0259123 3.97095e-10 6.85174e-10 -8.70747e-10 2.22167 -0.733487 -0.20892 1.72248e-14 -9.9125e-14 1.28244e-13 -43.8131 17.6645 0.420944 21.1958 -18.2647 -29.5789 0.0175418 7.99925 -1.12341 -9.34205e-10 -5.39256e-10 -1.47099e-11 -1.61546e-09 -9.36193e-10 -1.40524e-11 -9.3422e-10 -5.39256e-10 -1.46914e-11 -7.73091 5.47488 -0.417314 -9.34207e-10 -5.39259e-10 -1.47111e-11 -2.90554 0.965183 -0.102902 -9.34211e-10 -5.3926e-10 -1.47095e-11 -10.2786 0.731801 -0.0259123 -9.342e-10 -5.39258e-10 -1.47113e-11 -2.22167 -0.733487 0.20892 -2.03217e-16 0.0 -3.88251e-19 -6.20889 -7.52613 0.975015 0.0227255 19.8825 0.375307 -4.90146 -13.2514 -13.3173 2.03217e-16 0.0 3.88251e-19 5.99507 -10.6607 2.36328 0.0495849 26.0598 -0.40572 4.50532 -14.3074 12.3427
-35.2579 82.2189 8.95685 178.452 -64.5301 178.222 -0.790167 -3.23955 2.40328 -1.7458 6.03058 0.737308 2.78517 14.0461 5.51122 0.346487 -31.3715 11.0745 -0.0 0.0 0.0 -0.0 0.0 0.0 2.44261e-14 -1.39826e-13 1.82094e-13 66.0632 30.2091 2.61813 -25.2254 -23.502 46.0218 -0.107827 10.5363 1.4936 5.65193e-10 9.72822e-10 -1.23456e-09 9.65504e-10 1.67721e-09 -2.13771e-09 5.65204e-10 9.72823e-10 -1.23456e-09 7.73091 5.47488 0.417314 5.65196e-10 9.7282e-10 -1.23456e-09 2.90554 0.965183 0.102902 5.65198e-10 9.72823e-10 -1.23456e-09 10.2786 0.731801 0.0259123 5.6519e-10 9.72826e-10 -1.23456e-09 2.22167 -0.733487 -0.20892 2.43794e-14 -1.39823e-13 1.81879e-13 -63.9703 25.7564 0.631187 24.7298 -22.4677 -44.9574 0.132497 11.6611 -1.6563 -1.32753e-09 -7.65272e-10 -1.79367e-11 -2.2956e-09 -1.32856e-09 -1.48503e-11 -1.32755e-09 -7.65274e-10 -1.79173e-11 -7.73091 5.47488 -0.417314 -1.32753e-09 -7.65277e-10 -1.79371e-11 -2.90554 0.965183 -0.102902 -1.32753e-09 -7.65278e-10 -1.7938e-11 -10.2786 0.731801 -0.0259123 -1.32752e-09 -7.65276e-10 -1.79389e-11 -2.22167 -0.733487 0.20892 -2.03217e-16 0.0 -3.88251e-19 -8.97085 -10.0194 1.44424 -0.0924308 29.8136 0.6337 -9.71313 -20.3977 -20.2674 2.03217e-16 0.0 3.88251e-19 9.40459 -13.2419 3.44521 0.202149 36.3997 -0.657415 8.73647 -20.9627 18.7539
